<?xml version="1.0" encoding="UTF-8"?>
<svg version="1.1" xmlns="http://www.w3.org/2000/svg" width="1600" height="1600">
<path d="M0 0 C1.66068041 -0.00702069 3.32136054 -0.01410752 4.98204041 -0.02125549 C10.25756214 -0.04065241 15.53303995 -0.04568918 20.80859375 -0.046875 C21.7067984 -0.04731686 22.60500305 -0.04775871 23.53042603 -0.04821396 C49.11555624 -0.05481763 74.57935081 0.01264072 100.02850342 2.94989014 C102.38007192 3.21842446 104.73294845 3.47191329 107.08642578 3.72314453 C169.39016803 10.43257972 230.13058316 24.53481702 289.24609375 45.203125 C290.25669861 45.55567352 290.25669861 45.55567352 291.28771973 45.91534424 C334.35033948 60.96529714 376.10065159 80.01993227 415.65869141 102.72802734 C417.90056493 104.0061364 420.15141172 105.26309776 422.4140625 106.50390625 C442.4515504 117.50221513 461.50869518 130.13887503 480.24609375 143.203125 C480.89690918 143.65461914 481.54772461 144.10611328 482.21826172 144.57128906 C493.49842879 152.41431191 504.36482994 160.82034412 515.24609375 169.203125 C515.93300293 169.73115723 516.61991211 170.25918945 517.32763672 170.80322266 C525.6118528 177.18445314 533.61004803 183.8445022 541.50488281 190.70019531 C543.2186313 192.17942073 544.94452653 193.6428841 546.67578125 195.1015625 C557.15849951 203.95244567 567.299186 213.19714795 576.96875 222.93359375 C579.316751 225.29547456 581.70039432 227.55244789 584.24609375 229.703125 C589.38911628 234.15248361 594.12565723 238.8576755 598.55859375 244.015625 C601.32227404 247.22646255 604.23228971 250.22579665 607.24609375 253.203125 C610.81692887 256.73625899 614.211606 260.33685595 617.4765625 264.15234375 C619.48395398 266.47879083 621.55076013 268.74505186 623.62109375 271.015625 C627.51850822 275.33438157 631.2190973 279.78074551 634.875 284.3046875 C636.94256755 286.83209297 639.05173638 289.3164458 641.18310547 291.79003906 C647.34581251 298.96126863 653.01766663 306.43542307 658.63183594 314.04003906 C660.25428954 316.21410726 661.90550701 318.36300646 663.56640625 320.5078125 C685.50956237 348.99896827 704.79123182 379.79310915 722.24609375 411.203125 C722.78314941 412.16750488 723.32020508 413.13188477 723.87353516 414.12548828 C764.57818703 487.56489959 793.0285814 567.11178628 820.484375 733.98046875 C820.54762466 734.66246338 820.61087433 735.34445801 820.67604065 736.04711914 C821.90514273 750.01386493 822.41239642 763.9421182 822.44921875 777.95703125 C822.45623944 779.61771166 822.46332627 781.27839179 822.47047424 782.93907166 C822.48987116 788.21459339 822.49490793 793.4900712 822.49609375 798.765625 C822.49653561 799.66382965 822.49697746 800.5620343 822.49743271 801.48745728 C822.50403638 827.07258749 822.43657803 852.53638206 819.49932861 877.98553467 C819.23079429 880.33710317 818.97730546 882.6899797 818.72607422 885.04345703 C812.01663903 947.34719928 797.91440173 1008.08761441 777.24609375 1067.203125 C777.0110614 1067.87686157 776.77602905 1068.55059814 776.53387451 1069.24475098 C761.48392161 1112.30737073 742.42928648 1154.05768284 719.72119141 1193.61572266 C718.44308235 1195.85759618 717.18612099 1198.10844297 715.9453125 1200.37109375 C704.94700362 1220.40858165 692.31034372 1239.46572643 679.24609375 1258.203125 C678.79459961 1258.85394043 678.34310547 1259.50475586 677.87792969 1260.17529297 C670.03490684 1271.45546004 661.62887463 1282.32186119 653.24609375 1293.203125 C652.71806152 1293.89003418 652.1900293 1294.57694336 651.64599609 1295.28466797 C645.26476561 1303.56888405 638.60471655 1311.56707928 631.74902344 1319.46191406 C630.26979802 1321.17566255 628.80633465 1322.90155778 627.34765625 1324.6328125 C618.49677308 1335.11553076 609.2520708 1345.25621725 599.515625 1354.92578125 C597.15374419 1357.27378225 594.89677086 1359.65742557 592.74609375 1362.203125 C588.29673514 1367.34614753 583.59154325 1372.08268848 578.43359375 1376.515625 C575.2227562 1379.27930529 572.2234221 1382.18932096 569.24609375 1385.203125 C565.71295976 1388.77396012 562.1123628 1392.16863725 558.296875 1395.43359375 C555.97042792 1397.44098523 553.70416689 1399.50779138 551.43359375 1401.578125 C547.11483718 1405.47553947 542.66847324 1409.17612855 538.14453125 1412.83203125 C535.61712578 1414.8995988 533.13277295 1417.00876763 530.65917969 1419.14013672 C523.48795012 1425.30284376 516.01379568 1430.97469788 508.40917969 1436.58886719 C506.23511149 1438.21132079 504.08621229 1439.86253826 501.94140625 1441.5234375 C473.45025048 1463.46659362 442.6561096 1482.74826307 411.24609375 1500.203125 C410.28171387 1500.74018066 409.31733398 1501.27723633 408.32373047 1501.83056641 C334.88431916 1542.53521828 255.33743247 1570.98561265 88.46875 1598.44140625 C87.78675537 1598.50465591 87.10476074 1598.56790558 86.40209961 1598.6330719 C72.43535382 1599.86217398 58.50710055 1600.36942767 44.4921875 1600.40625 C42.83150709 1600.41327069 41.17082696 1600.42035752 39.51014709 1600.42750549 C34.23462536 1600.44690241 28.95914755 1600.45193918 23.68359375 1600.453125 C22.7853891 1600.45356686 21.88718445 1600.45400871 20.96176147 1600.45446396 C-4.62336874 1600.46106763 -30.08716331 1600.39360928 -55.53631592 1597.45635986 C-57.88788442 1597.18782554 -60.24076095 1596.93433671 -62.59423828 1596.68310547 C-124.89798053 1589.97367028 -185.63839566 1575.87143298 -244.75390625 1555.203125 C-245.42764282 1554.96809265 -246.10137939 1554.7330603 -246.79553223 1554.49090576 C-289.85815198 1539.44095286 -331.60846409 1520.38631773 -371.16650391 1497.67822266 C-373.40837743 1496.4001136 -375.65922422 1495.14315224 -377.921875 1493.90234375 C-397.9593629 1482.90403487 -417.01650768 1470.26737497 -435.75390625 1457.203125 C-436.40472168 1456.75163086 -437.05553711 1456.30013672 -437.72607422 1455.83496094 C-449.00624129 1447.99193809 -459.87264244 1439.58590588 -470.75390625 1431.203125 C-471.44081543 1430.67509277 -472.12772461 1430.14706055 -472.83544922 1429.60302734 C-481.1196653 1423.22179686 -489.11786053 1416.5617478 -497.01269531 1409.70605469 C-498.7264438 1408.22682927 -500.45233903 1406.7633659 -502.18359375 1405.3046875 C-512.66631201 1396.45380433 -522.8069985 1387.20910205 -532.4765625 1377.47265625 C-534.8245635 1375.11077544 -537.20820682 1372.85380211 -539.75390625 1370.703125 C-544.89692878 1366.25376639 -549.63346973 1361.5485745 -554.06640625 1356.390625 C-556.83008654 1353.17978745 -559.74010221 1350.18045335 -562.75390625 1347.203125 C-566.32474137 1343.66999101 -569.7194185 1340.06939405 -572.984375 1336.25390625 C-574.99176648 1333.92745917 -577.05857263 1331.66119814 -579.12890625 1329.390625 C-583.02632072 1325.07186843 -586.7269098 1320.62550449 -590.3828125 1316.1015625 C-592.45038005 1313.57415703 -594.55954888 1311.0898042 -596.69091797 1308.61621094 C-602.85362501 1301.44498137 -608.52547913 1293.97082693 -614.13964844 1286.36621094 C-615.76210204 1284.19214274 -617.41331951 1282.04324354 -619.07421875 1279.8984375 C-641.01737487 1251.40728173 -660.29904432 1220.61314085 -677.75390625 1189.203125 C-678.29096191 1188.23874512 -678.82801758 1187.27436523 -679.38134766 1186.28076172 C-720.08599953 1112.84135041 -748.5363939 1033.29446372 -775.9921875 866.42578125 C-776.05543716 865.74378662 -776.11868683 865.06179199 -776.18385315 864.35913086 C-777.41295523 850.39238507 -777.92020892 836.4641318 -777.95703125 822.44921875 C-777.96405194 820.78853834 -777.97113877 819.12785821 -777.97828674 817.46717834 C-777.99768366 812.19165661 -778.00272043 806.9161788 -778.00390625 801.640625 C-778.00434811 800.74242035 -778.00478996 799.8442157 -778.00524521 798.91879272 C-778.01184888 773.33366251 -777.94439053 747.86986794 -775.00714111 722.42071533 C-774.73860679 720.06914683 -774.48511796 717.7162703 -774.23388672 715.36279297 C-767.52445153 653.05905072 -753.42221423 592.31863559 -732.75390625 533.203125 C-732.40135773 532.19252014 -732.40135773 532.19252014 -732.04168701 531.16149902 C-716.99173411 488.09887927 -697.93709898 446.34856716 -675.22900391 406.79052734 C-673.95089485 404.54865382 -672.69393349 402.29780703 -671.453125 400.03515625 C-660.45481612 379.99766835 -647.81815622 360.94052357 -634.75390625 342.203125 C-634.30241211 341.55230957 -633.85091797 340.90149414 -633.38574219 340.23095703 C-625.54271934 328.95078996 -617.13668713 318.08438881 -608.75390625 307.203125 C-608.22587402 306.51621582 -607.6978418 305.82930664 -607.15380859 305.12158203 C-600.77257811 296.83736595 -594.11252905 288.83917072 -587.25683594 280.94433594 C-585.77761052 279.23058745 -584.31414715 277.50469222 -582.85546875 275.7734375 C-574.00458558 265.29071924 -564.7598833 255.15003275 -555.0234375 245.48046875 C-552.66155669 243.13246775 -550.40458336 240.74882443 -548.25390625 238.203125 C-543.80454764 233.06010247 -539.09935575 228.32356152 -533.94140625 223.890625 C-530.7305687 221.12694471 -527.7312346 218.21692904 -524.75390625 215.203125 C-521.22077226 211.63228988 -517.6201753 208.23761275 -513.8046875 204.97265625 C-511.47824042 202.96526477 -509.21197939 200.89845862 -506.94140625 198.828125 C-502.62264968 194.93071053 -498.17628574 191.23012145 -493.65234375 187.57421875 C-491.12493828 185.5066512 -488.64058545 183.39748237 -486.16699219 181.26611328 C-478.99576262 175.10340624 -471.52160818 169.43155212 -463.91699219 163.81738281 C-461.74292399 162.19492921 -459.59402479 160.54371174 -457.44921875 158.8828125 C-428.95806298 136.93965638 -398.1639221 117.65798693 -366.75390625 100.203125 C-365.78952637 99.66606934 -364.82514648 99.12901367 -363.83154297 98.57568359 C-290.39213166 57.87103172 -210.84524497 29.42063735 -43.9765625 1.96484375 C-43.29456787 1.90159409 -42.61257324 1.83834442 -41.90991211 1.7731781 C-27.94316632 0.54407602 -14.01491305 0.03682233 0 0 Z " fill="#FEFEFE" transform="translate(777.75390625,-0.203125)"/>
<path d="M0 0 C8.90341342 7.60472004 16.09531913 16.87165953 20 28 C20.27714844 28.78890625 20.55429688 29.5778125 20.83984375 30.390625 C24.82506694 43.54002501 24.58119396 59.05719594 20 72 C19.68289063 72.96808594 19.36578125 73.93617188 19.0390625 74.93359375 C13.57556723 89.83227412 2.76490559 101.45598032 -11.5 108.3125 C-29.55947221 116.14039844 -48.33885303 117.82279149 -67 111 C-83.43086351 104.47728396 -95.72915501 93.19126 -102.8125 76.875 C-109.20231986 61.12943706 -109.94850641 40.9841497 -103.55078125 25.125 C-101.06248566 20.11080235 -98.33952727 15.49384213 -95 11 C-94.48953125 10.29488281 -93.9790625 9.58976563 -93.453125 8.86328125 C-84.39227208 -2.55249632 -69.61745233 -10.53690685 -55.31640625 -12.72265625 C-35.15914286 -14.40836379 -16.80977206 -12.26440969 0 0 Z " fill="#030303" transform="translate(1253,880)"/>
<path d="M0 0 C8.90341342 7.60472004 16.09531913 16.87165953 20 28 C20.27714844 28.78890625 20.55429687 29.5778125 20.83984375 30.390625 C24.82506694 43.54002501 24.58119396 59.05719594 20 72 C19.68289063 72.96808594 19.36578125 73.93617188 19.0390625 74.93359375 C13.57556723 89.83227412 2.76490559 101.45598032 -11.5 108.3125 C-29.55947221 116.14039844 -48.33885303 117.82279149 -67 111 C-83.43086351 104.47728396 -95.72915501 93.19126 -102.8125 76.875 C-109.20231986 61.12943706 -109.94850641 40.9841497 -103.55078125 25.125 C-101.06248566 20.11080235 -98.33952727 15.49384213 -95 11 C-94.48953125 10.29488281 -93.9790625 9.58976563 -93.453125 8.86328125 C-84.39227208 -2.55249632 -69.61745233 -10.53690685 -55.31640625 -12.72265625 C-35.15914286 -14.40836379 -16.80977206 -12.26440969 0 0 Z " fill="#030303" transform="translate(570,880)"/>
<path d="M0 0 C9.6438327 7.61624243 13.57899436 17.04884546 15 29 C15.35166727 35.54760602 15.23361292 42.11375219 15.1953125 48.66796875 C15.19157573 50.55796661 15.1887319 52.44796642 15.18673706 54.33796692 C15.17915288 59.27806074 15.15955 64.21803429 15.1373291 69.15808105 C15.11675748 74.2127927 15.10771129 79.26752405 15.09765625 84.32226562 C15.07629852 94.21489618 15.0422266 104.10743803 15 114 C11.04247389 114.65084344 7.08384689 115.2947434 3.125 115.9375 C1.46210937 116.21110352 1.46210937 116.21110352 -0.234375 116.49023438 C-25.88039451 120.63885518 -59.3851056 124.35877855 -82 109 C-82.58910156 108.62230469 -83.17820312 108.24460937 -83.78515625 107.85546875 C-88.90444715 104.15020193 -92.91409634 97.80728416 -94.640625 91.75390625 C-96.20865052 79.73805852 -96.54229673 68.1047437 -89 58 C-79.80691758 47.41224055 -66.37503336 43.98269024 -53 42 C-37.16974477 41.16576426 -21.48928657 41.51646567 -6 45 C-6.86452087 30.21397524 -6.86452087 30.21397524 -14.125 17.75 C-29.79288641 8.21302566 -47.4868245 9.71473008 -64.6171875 13.86962891 C-69.89767386 15.24484218 -74.85874202 17.06191385 -79.86889648 19.22167969 C-82 20 -82 20 -85 20 C-84.38613218 15.65721168 -83.70791458 11.32839198 -83 7 C-82.90203125 6.2471875 -82.8040625 5.494375 -82.703125 4.71875 C-82.375 2.9375 -82.375 2.9375 -81 0 C-58.78045188 -13.01827905 -21.8166582 -14.45449969 0 0 Z " fill="#030303" transform="translate(976,876)"/>
<path d="M0 0 C1.23516357 -0.0304541 2.47032715 -0.0609082 3.74291992 -0.09228516 C15.47577 -0.09701201 26.85877059 3.12359911 35.4375 11.5 C40.4375 17.35784314 40.4375 17.35784314 40.4375 20.5 C41.0975 20.5 41.7575 20.5 42.4375 20.5 C42.664375 19.778125 42.89125 19.05625 43.125 18.3125 C44.74138664 14.84881433 46.57961981 13.04724104 49.4375 10.5 C49.98148438 10.00242187 50.52546875 9.50484375 51.0859375 8.9921875 C63.31137787 -1.27305568 79.33716363 -0.69958349 94.4375 0.5 C106.13809252 1.96428468 116.55852753 5.97658868 124.08984375 15.375 C129.73112683 24.27024057 131.59552458 33.1117283 131.55102539 43.42114258 C131.55117142 44.30944763 131.55131744 45.19775269 131.5514679 46.11297607 C131.55077293 49.04018624 131.543 51.96733225 131.53515625 54.89453125 C131.53329059 56.92762721 131.53186739 58.96072362 131.53086853 60.99382019 C131.52705499 66.33838141 131.51723462 71.68291536 131.50616455 77.02746582 C131.49592543 82.48380158 131.49136555 87.94014177 131.48632812 93.39648438 C131.47561132 104.09767015 131.45802392 114.79882854 131.4375 125.5 C124.1775 125.5 116.9175 125.5 109.4375 125.5 C109.4281543 122.84582031 109.41880859 120.19164062 109.40917969 117.45703125 C109.37536028 108.67188729 109.31978363 99.886977 109.25359726 91.10202026 C109.21414631 85.77747392 109.18194604 80.45309237 109.16650391 75.12841797 C109.15132178 69.98646577 109.11684823 64.8449667 109.06919098 59.70321655 C109.05439329 57.74494371 109.04645991 55.78660616 109.04561615 53.82827759 C109.0432399 51.07773958 109.01610755 48.32844715 108.98339844 45.578125 C108.9884288 44.77467148 108.99345917 43.97121796 108.99864197 43.14341736 C108.86841721 36.03110953 106.67023238 30.8365804 101.75 25.6875 C92.48584343 19.56966076 82.25167606 19.4178167 71.4375 20.5 C65.09729741 21.81015257 60.77639302 24.41595122 56.59375 29.328125 C53.42856016 35.27354917 53.13699091 41.72008611 53.11865234 48.30273438 C53.10860672 49.14270966 53.0985611 49.98268494 53.08821106 50.84811401 C53.05756913 53.59665302 53.04039721 56.34509549 53.0234375 59.09375 C53.00471054 61.01046569 52.98513601 62.92717328 52.9647522 64.84387207 C52.91358637 69.86774904 52.87387771 74.89165269 52.83660889 79.91564941 C52.79647142 85.0506034 52.74542366 90.18544788 52.6953125 95.3203125 C52.5987374 105.38013878 52.51528342 115.44001086 52.4375 125.5 C45.1775 125.5 37.9175 125.5 30.4375 125.5 C30.4281543 122.94193604 30.41880859 120.38387207 30.40917969 117.74829102 C30.37533685 109.27447779 30.31974729 100.80090622 30.25359726 92.32728672 C30.21417228 87.1922183 30.18195936 82.05732009 30.16650391 76.92211914 C30.15130457 71.96170301 30.1168008 67.00175497 30.06919098 62.04154778 C30.05441096 60.15387998 30.04646093 58.26614534 30.04561615 56.37841988 C30.04323452 53.72386524 30.01605994 51.07059177 29.98339844 48.41625977 C29.9884288 47.64445374 29.99345917 46.87264771 29.99864197 46.07745361 C29.86521522 39.01916426 27.61327889 33.14621757 23.125 27.6875 C15.38728206 21.38935749 9.01028967 20.3192722 -0.6875 20.3125 C-1.58726562 20.30025391 -2.48703125 20.28800781 -3.4140625 20.27539062 C-8.93680238 20.26348817 -13.98713885 20.80633873 -19.36669922 22.0690918 C-21.5625 22.5 -21.5625 22.5 -25.5625 22.5 C-25.5625 56.49 -25.5625 90.48 -25.5625 125.5 C-32.4925 125.5 -39.4225 125.5 -46.5625 125.5 C-46.5625 85.9 -46.5625 46.3 -46.5625 5.5 C-31.03470296 2.04937843 -15.92729407 0.19935023 0 0 Z " fill="#020202" transform="translate(734.5625,866.5)"/>
<path d="M0 0 C1.16080078 -0.01764404 2.32160156 -0.03528809 3.51757812 -0.0534668 C16.86211291 -0.04297581 29.9462434 3.02080977 40.4375 11.6875 C41.489375 12.986875 41.489375 12.986875 42.5625 14.3125 C43.31273437 15.19035156 43.31273437 15.19035156 44.078125 16.0859375 C51.32407326 24.98508755 52.7262355 34.88125215 52.67602539 46.07177734 C52.67617142 46.93096771 52.67631744 47.79015808 52.6764679 48.67538452 C52.67577429 51.49976169 52.6680078 54.32407193 52.66015625 57.1484375 C52.65829011 59.11284346 52.65686713 61.0772499 52.65586853 63.04165649 C52.65205879 68.20043228 52.64224171 73.35917971 52.63116455 78.51794434 C52.62091721 83.78669857 52.6163638 89.05545741 52.61132812 94.32421875 C52.60061803 104.65366027 52.58303376 114.98307333 52.5625 125.3125 C45.3025 125.3125 38.0425 125.3125 30.5625 125.3125 C30.5531543 122.68861328 30.54380859 120.06472656 30.53417969 117.36132812 C30.50035866 108.67596743 30.44478111 99.99084304 30.37859726 91.30567169 C30.3391481 86.04165937 30.30694697 80.7778137 30.29150391 75.51367188 C30.27632058 70.43007191 30.24184495 65.34693017 30.19419098 60.26353455 C30.17939452 58.32759085 30.17145998 56.39158172 30.17061615 54.45558167 C30.16823952 51.73617134 30.14110432 49.0180202 30.10839844 46.29882812 C30.1134288 45.50472534 30.11845917 44.71062256 30.12364197 43.89245605 C30.00421944 37.44234312 28.12799941 32.16367729 23.7734375 27.32421875 C10.8141398 17.97698062 -5.17191465 19.08570457 -20.375 21.3125 C-21.43589844 21.498125 -22.49679687 21.68375 -23.58984375 21.875 C-26.4375 22.3125 -26.4375 22.3125 -31.4375 22.3125 C-31.4375 56.3025 -31.4375 90.2925 -31.4375 125.3125 C-38.6975 125.3125 -45.9575 125.3125 -53.4375 125.3125 C-53.4375 85.7125 -53.4375 46.1125 -53.4375 5.3125 C-35.28741071 2.58998661 -18.22863559 0.15685439 0 0 Z " fill="#040404" transform="translate(1344.4375,866.6875)"/>
<path d="M0 0 C7.84238915 7.15596559 12.24872117 17.18917838 13.08971024 27.68156624 C13.15337415 30.00117953 13.15806677 32.31267411 13.13720703 34.63305664 C13.13749908 35.50243866 13.13779114 36.37182068 13.13809204 37.26754761 C13.13671154 40.10815824 13.12121133 42.94849835 13.10546875 45.7890625 C13.10173406 47.7715999 13.09888924 49.75413916 13.09689331 51.73667908 C13.08929276 56.9299742 13.06967531 62.12315571 13.04748535 67.31640625 C13.0269495 72.62563541 13.0178751 77.93488311 13.0078125 83.24414062 C12.98642578 93.64328686 12.95127311 104.04231929 12.91015625 114.44140625 C5.65015625 114.44140625 -1.60984375 114.44140625 -9.08984375 114.44140625 C-9.09395264 111.85828613 -9.09806152 109.27516602 -9.10229492 106.61376953 C-9.11953918 98.05213781 -9.16411888 89.49080272 -9.22193432 80.92935371 C-9.25613632 75.74158135 -9.28130374 70.55410136 -9.28540039 65.36621094 C-9.28969789 60.3538568 -9.31828079 55.34216145 -9.36327553 50.33001328 C-9.37620422 48.42363201 -9.38057472 46.51717172 -9.37599754 44.61075211 C-9.04991815 30.18915565 -9.04991815 30.18915565 -15.08984375 17.44140625 C-25.04319553 8.19089656 -37.24330594 9.18785616 -50.08984375 9.44140625 C-57.34984375 10.10140625 -64.60984375 10.76140625 -72.08984375 11.44140625 C-72.08984375 45.43140625 -72.08984375 79.42140625 -72.08984375 114.44140625 C-79.01984375 114.44140625 -85.94984375 114.44140625 -93.08984375 114.44140625 C-93.08984375 74.84140625 -93.08984375 35.24140625 -93.08984375 -5.55859375 C-20.44136749 -15.24505725 -20.44136749 -15.24505725 0 0 Z " fill="#010101" transform="translate(336.08984375,877.55859375)"/>
<path d="M0 0 C9.46176955 7.0463027 15.86546281 16.60405759 18.0859375 28.23828125 C19.44540255 42.93510675 17.09580511 56.59417707 7.70703125 68.39453125 C1.03778441 75.97979513 -7.74012262 81.62956314 -17.98925781 82.39282227 C-31.80771584 83.08716699 -42.32943716 82.24559792 -53.2890625 72.98828125 C-61.42714005 65.09799772 -67.79852907 55.21824123 -68.48046875 43.65234375 C-68.50778146 41.72284911 -68.50586269 39.79274673 -68.4765625 37.86328125 C-68.46705566 36.85322021 -68.45754883 35.84315918 -68.44775391 34.80249023 C-68.23324791 27.11065242 -67.04941307 20.85047767 -62.9140625 14.23828125 C-62.22763672 13.12839844 -62.22763672 13.12839844 -61.52734375 11.99609375 C-55.13507691 2.71417204 -46.70034589 -2.90021518 -36.04296875 -6.37109375 C-23.49351959 -8.67374497 -10.91142972 -6.59658821 0 0 Z " fill="#FDFDFD" transform="translate(1235.9140625,892.76171875)"/>
<path d="M0 0 C9.46176955 7.0463027 15.86546281 16.60405759 18.0859375 28.23828125 C19.44540255 42.93510675 17.09580511 56.59417707 7.70703125 68.39453125 C1.03778441 75.97979513 -7.74012262 81.62956314 -17.98925781 82.39282227 C-31.80771584 83.08716699 -42.32943716 82.24559792 -53.2890625 72.98828125 C-61.42714005 65.09799772 -67.79852907 55.21824123 -68.48046875 43.65234375 C-68.50778146 41.72284911 -68.50586269 39.79274673 -68.4765625 37.86328125 C-68.46705566 36.85322021 -68.45754883 35.84315918 -68.44775391 34.80249023 C-68.23324791 27.11065242 -67.04941307 20.85047767 -62.9140625 14.23828125 C-62.22763672 13.12839844 -62.22763672 13.12839844 -61.52734375 11.99609375 C-55.13507691 2.71417204 -46.70034589 -2.90021518 -36.04296875 -6.37109375 C-23.49351959 -8.67374497 -10.91142972 -6.59658821 0 0 Z " fill="#FDFDFD" transform="translate(552.9140625,892.76171875)"/>
<path d="M0 0 C3.80018544 1.05966709 6.44788469 3.67603231 9.03125 6.56640625 C10.70575175 9.91540975 10.47546948 13.03207408 9.44085693 16.60562134 C8.5613746 19.04903182 7.61725742 21.45778173 6.6484375 23.8671875 C6.28686554 24.79045334 5.92529358 25.71371918 5.55276489 26.66496277 C4.34636984 29.73994625 3.12610629 32.80924085 1.90625 35.87890625 C1.0470191 38.06334696 0.18897074 40.24825313 -0.66796875 42.43359375 C-2.02343036 45.88952561 -3.37977455 49.34508891 -4.73980713 52.79922485 C-9.41278061 64.6683259 -14.00243233 76.56905572 -18.58514404 88.47323608 C-20.90794017 94.50544613 -23.23511071 100.53596717 -25.5625 106.56640625 C-26.01901947 107.7493779 -26.47553894 108.93234955 -26.94589233 110.15116882 C-31.82054446 122.7790988 -36.71591786 135.3989723 -41.6144104 148.01766968 C-46.34397242 160.20178984 -51.06117573 172.39059527 -55.76171875 184.5859375 C-56.25793651 185.87308057 -56.7541625 187.16022046 -57.25039673 188.44735718 C-59.63871402 194.64262562 -62.02555741 200.83845527 -64.41015625 207.03515625 C-66.52532053 212.52905354 -68.65123583 218.01868978 -70.78363037 223.50592041 C-71.94749363 226.51151321 -73.09834336 229.52186898 -74.24853516 232.53271484 C-74.95282934 234.35017574 -75.65770947 236.16740971 -76.36328125 237.984375 C-76.67174484 238.8023909 -76.98020844 239.6204068 -77.29801941 240.46321106 C-78.92790814 244.61857619 -80.34493838 247.7478861 -83.96875 250.56640625 C-87.62163193 251.78403356 -90.12629136 251.95716476 -93.96875 251.56640625 C-97.44759669 249.55967731 -99.6750159 247.44760856 -100.96875 243.56640625 C-101.47507308 236.92328494 -100.07542455 232.18718139 -97.5859375 226.0703125 C-97.04378349 224.69020241 -97.04378349 224.69020241 -96.49067688 223.2822113 C-95.28721849 220.22613907 -94.06523923 217.17781127 -92.84375 214.12890625 C-91.98194349 211.94787206 -91.12170764 209.76621667 -90.26293945 207.58398438 C-88.4396788 202.95268284 -86.61079514 198.32365696 -84.77880859 193.69580078 C-80.63006765 183.193902 -76.57851451 172.65455603 -72.5229187 162.11642456 C-70.6800309 157.32939357 -68.83327286 152.54385952 -66.98652649 147.75831604 C-65.584107 144.1241628 -64.18211872 140.48984351 -62.78027344 136.85546875 C-62.31649292 135.6530957 -61.8527124 134.45072266 -61.37487793 133.21191406 C-60.91085571 132.00889648 -60.4468335 130.80587891 -59.96875 129.56640625 C-48.40737179 99.5925371 -36.83804538 69.62186916 -25.2199707 39.66992188 C-24.85481857 38.7278891 -24.48966644 37.78585632 -24.1134491 36.8152771 C-23.4045651 34.99015685 -22.69337863 33.16592892 -21.97969055 31.34268188 C-20.29700356 27.03760968 -18.65436986 22.72529119 -17.09326172 18.37451172 C-16.79153549 17.55148056 -16.48980927 16.7284494 -16.17893982 15.88047791 C-15.6204644 14.35299541 -15.07577911 12.82035929 -14.54872131 11.28175354 C-12.05488817 4.53888346 -7.90921154 -0.47151069 0 0 Z " fill="#601CEB" transform="translate(844.96875,457.43359375)"/>
<path d="M0 0 C1.54882234 0.01004992 3.09765099 0.01917221 4.64648438 0.02734375 C8.41044224 0.04748264 12.17350943 0.08665714 15.9375 0.125 C15.9375 6.395 15.9375 12.665 15.9375 19.125 C13.97167969 19.15078125 12.00585938 19.1765625 9.98046875 19.203125 C8.03748684 19.24490956 6.09450551 19.28683762 4.15161133 19.33251953 C2.17226765 19.37400921 0.19254969 19.39622512 -1.78710938 19.41796875 C-11.12996855 19.65449683 -19.56276686 20.63541104 -27.125 26.5 C-33.56285111 35.22224989 -31.55184037 45.40114786 -32.0625 56.125 C-16.2225 56.125 -0.3825 56.125 15.9375 56.125 C15.9375 62.395 15.9375 68.665 15.9375 75.125 C0.0975 75.125 -15.7425 75.125 -32.0625 75.125 C-32.0625 108.785 -32.0625 142.445 -32.0625 177.125 C-39.3225 177.125 -46.5825 177.125 -54.0625 177.125 C-54.0625 143.465 -54.0625 109.805 -54.0625 75.125 C-61.6525 75.125 -69.2425 75.125 -77.0625 75.125 C-77.0625 68.855 -77.0625 62.585 -77.0625 56.125 C-69.4725 56.125 -61.8825 56.125 -54.0625 56.125 C-54.145 52.4125 -54.2275 48.7 -54.3125 44.875 C-54.40587918 32.21278303 -53.27451285 21.6355503 -44.0625 12.125 C-31.62298363 0.59699992 -16.06728816 -0.18201694 0 0 Z " fill="#030303" transform="translate(437.0625,814.875)"/>
<path d="M0 0 C6.93 0 13.86 0 21 0 C21 13.53 21 27.06 21 41 C36.84 41 52.68 41 69 41 C69 47.27 69 53.54 69 60 C53.16 60 37.32 60 21 60 C21.0677835 67.77406674 21.13841395 75.5472459 21.2355423 83.32086182 C21.27999551 86.9417505 21.31947181 90.56252901 21.34643555 94.18359375 C21.37266078 97.67866463 21.41319423 101.17331633 21.46318626 104.66812515 C21.48771369 106.63419292 21.49784972 108.60042352 21.50764465 110.56661987 C21.64885236 119.2735067 22.50903407 126.796495 27 134.375 C35.25710394 141.59996595 45.70891124 141.63490816 56.1875 141.75 C57.53454219 141.7782358 58.88154981 141.80817348 60.22851562 141.83984375 C63.48536152 141.90988345 66.74268119 141.95728106 70 142 C70 148.6 70 155.2 70 162 C64.80771226 162.04626791 59.61615885 162.08598391 54.42382812 162.10986328 C52.66273557 162.11983294 50.90165917 162.13341356 49.140625 162.15087891 C19.02027445 162.44181411 19.02027445 162.44181411 8.99609375 153.140625 C1.35412741 144.90836063 -0.13276926 136.60786292 -0.11352539 125.50415039 C-0.11367142 124.79111755 -0.11381744 124.07808472 -0.1139679 123.34344482 C-0.11327713 121.0114832 -0.1055243 118.67960374 -0.09765625 116.34765625 C-0.0957891 114.72098331 -0.0943666 113.09430981 -0.09336853 111.46763611 C-0.08956677 107.20484846 -0.07975668 102.94209537 -0.06866455 98.67932129 C-0.0583999 94.32202624 -0.05386012 89.96472556 -0.04882812 85.60742188 C-0.03813213 77.07159703 -0.02055449 68.53580681 0 60 C-7.59 60 -15.18 60 -23 60 C-23 53.73 -23 47.46 -23 41 C-15.41 41 -7.82 41 0 41 C0 27.47 0 13.94 0 0 Z " fill="#000000" transform="translate(1025,830)"/>
<path d="M0 0 C4.4252912 2.67846573 8.45907587 5.84455584 12.5 9.0625 C13.73953605 10.04302852 14.97912076 11.02349554 16.21875 12.00390625 C16.84652344 12.50164551 17.47429688 12.99938477 18.12109375 13.51220703 C21.0738107 15.85028617 24.03717655 18.17475144 27 20.5 C28.16672321 21.4165947 29.33338975 22.33326154 30.5 23.25 C31.0775 23.70375 31.655 24.1575 32.25 24.625 C43.33333333 33.33333333 54.41666667 42.04166667 65.5 50.75 C66.07806396 51.20415283 66.65612793 51.65830566 67.25170898 52.1262207 C68.41283735 53.03861692 69.57380864 53.95121307 70.73461914 54.86401367 C73.73473385 57.22272164 76.73788739 59.57739925 79.74609375 61.92578125 C96.51364099 75.02728199 96.51364099 75.02728199 98 78 C98.36349662 83.54332351 98.39131012 86.40731484 95 91 C92.74338501 93.1537355 90.32716957 95.07447088 87.875 97 C87.16923828 97.56396484 86.46347656 98.12792969 85.73632812 98.70898438 C80.01111724 103.26186611 74.19664621 107.69767637 68.36767578 112.11645508 C62.72733772 116.40448046 57.22363034 120.84251986 51.74267578 125.33154297 C46.63843626 129.50428726 41.44742946 133.54320736 36.20703125 137.54296875 C32.80145034 140.14403224 29.42999601 142.78740675 26.0625 145.4375 C25.48677246 145.88947754 24.91104492 146.34145508 24.31787109 146.80712891 C21.27124646 149.20145142 18.2364566 151.60933253 15.21484375 154.03515625 C14.59279053 154.53152588 13.9707373 155.02789551 13.32983398 155.53930664 C12.14736776 156.48322865 10.96824059 157.43135569 9.79321289 158.38452148 C5.53062203 161.77742938 1.4621098 164.64094232 -4 165.4375 C-8.48569515 164.78333612 -11.62874978 162.80755711 -14.375 159.1875 C-15.35285878 155.76499428 -15.53535985 153.56906567 -15 150 C-11.15204222 143.48286024 -4.54512565 139.14132834 1.41015625 134.69921875 C5.15502907 131.9047064 8.79922316 128.99376618 12.4375 126.0625 C19.01111368 120.78150295 25.62820778 115.5587354 32.26611328 110.35888672 C34.0104349 108.99182193 35.75350898 107.62318416 37.49609375 106.25390625 C38.07488281 105.79910889 38.65367187 105.34431152 39.25 104.87573242 C40.41042876 103.9634813 41.57058806 103.05088731 42.73046875 102.13793945 C45.75125889 99.76136342 48.77849871 97.39373035 51.81640625 95.0390625 C52.75709961 94.30719727 52.75709961 94.30719727 53.71679688 93.56054688 C54.90733501 92.63457277 56.0999 91.71119594 57.29492188 90.79101562 C60.79824004 88.06067158 63.92805451 85.19207744 67 82 C58.93269574 75.36591803 50.82578837 68.80802951 42.5 62.5 C36.16778918 57.70012624 29.96205041 52.77063942 23.81298828 47.73876953 C19.53439732 44.23945175 15.22602586 40.78384332 10.875 37.375 C10.31224365 36.93389893 9.7494873 36.49279785 9.16967773 36.03833008 C6.16972069 33.69029423 3.16388995 31.34990162 0.15625 29.01171875 C-0.79290283 28.27139404 -0.79290283 28.27139404 -1.76123047 27.51611328 C-2.96673201 26.5759042 -4.17397643 25.63792367 -5.38330078 24.70263672 C-13.53143752 18.34223626 -13.53143752 18.34223626 -14.75 14.8515625 C-15.22646187 10.60807393 -15.24651381 8.50215777 -13.3125 4.5625 C-9.19551242 0.00043269 -6.16665601 -0.63792993 0 0 Z " fill="#601CEB" transform="translate(863,501)"/>
<path d="M0 0 C3.10575501 2.52342594 5.71778188 4.7374717 6.23046875 8.84765625 C6.15559774 12.70691624 5.67725299 15.1717577 3.1953125 18.20703125 C0.55439822 20.6098303 -2.17704241 22.81355642 -5 25 C-6.09622076 25.87353541 -7.19123742 26.74858363 -8.28515625 27.625 C-11.23272318 29.97279821 -14.20530111 32.28666883 -17.18554688 34.59277344 C-20.1352638 36.88047101 -23.0668805 39.19108846 -26 41.5 C-27.16786133 42.4181054 -28.33583017 43.33607408 -29.50390625 44.25390625 C-30.08156738 44.70781738 -30.65922852 45.16172852 -31.25439453 45.62939453 C-32.99029677 46.99238127 -34.72740847 48.35381194 -36.46484375 49.71484375 C-43.12741091 54.93685585 -49.75781219 60.19642202 -56.36132812 65.49291992 C-62.8707692 70.70884011 -69.43160615 75.85863779 -76 81 C-72.15195389 84.9949181 -68.06784733 88.52279552 -63.75 92 C-62.70489258 92.84594727 -62.70489258 92.84594727 -61.63867188 93.70898438 C-55.95640389 98.28425109 -50.17221266 102.71695511 -44.35839844 107.12304688 C-38.81766195 111.33613085 -33.41330504 115.69650148 -28.03491211 120.11401367 C-23.12761579 124.12775165 -18.11864872 127.98859664 -13.0625 131.8125 C2.31042569 143.46563853 2.31042569 143.46563853 6 149 C6.34323612 152.7069501 6.29041516 155.29009627 4.875 158.75 C1.82986995 162.40415606 -1.33740663 163.75753847 -6 164.4375 C-12.0589333 163.55390556 -16.8073539 158.67443557 -21.5 154.9375 C-22.73953605 153.95697148 -23.97912076 152.97650446 -25.21875 151.99609375 C-26.16041016 151.24948486 -26.16041016 151.24948486 -27.12109375 150.48779297 C-30.0738107 148.14971383 -33.03717655 145.82524856 -36 143.5 C-37.16672321 142.5834053 -38.33338975 141.66673846 -39.5 140.75 C-40.0775 140.29625 -40.655 139.8425 -41.25 139.375 C-52.33333333 130.66666667 -63.41666667 121.95833333 -74.5 113.25 C-75.07806396 112.79584717 -75.65612793 112.34169434 -76.25170898 111.8737793 C-77.41283735 110.96138308 -78.57380864 110.04878693 -79.73461914 109.13598633 C-82.73473385 106.77727836 -85.73788739 104.42260075 -88.74609375 102.07421875 C-105.73185245 88.80444265 -105.73185245 88.80444265 -107 85 C-107.69065702 77.97832031 -107.69065702 77.97832031 -104.96484375 74.1171875 C-101.77420228 70.53138001 -98.04159826 67.76919896 -94.1875 64.9375 C-88.27516831 60.50965263 -82.45901479 55.99983568 -76.75 51.3125 C-70.97999041 46.5853225 -65.13618651 41.98249007 -59.20703125 37.45703125 C-55.80145877 34.8559742 -52.42960435 32.21308007 -49.0625 29.5625 C-48.19020752 28.87583252 -48.19020752 28.87583252 -47.30029297 28.17529297 C-46.1220986 27.24740379 -44.94403901 26.31934346 -43.76611328 25.39111328 C-40.2705178 22.6377399 -36.77099361 19.88935274 -33.27001953 17.14282227 C-30.23417798 14.76020359 -27.20458022 12.37018474 -24.18359375 9.96875 C-23.55646484 9.47181641 -22.92933594 8.97488281 -22.28320312 8.46289062 C-21.08860027 7.51605725 -19.89576945 6.56698201 -18.70507812 5.61523438 C-12.25718732 0.51352244 -8.20333493 -2.48180604 0 0 Z " fill="#601CEB" transform="translate(746,502)"/>
<path d="M0 0 C6.93 0 13.86 0 21 0 C21 58.41 21 116.82 21 177 C14.07 177 7.14 177 0 177 C0 118.59 0 60.18 0 0 Z " fill="#010101" transform="translate(203,815)"/>
<path d="M0 0 C1.35072098 0.0001133 1.35072098 0.0001133 2.72872925 0.00022888 C4.15875778 0.00797081 4.15875778 0.00797081 5.61767578 0.01586914 C7.10317429 0.01799156 7.10317429 0.01799156 8.61868286 0.02015686 C11.76681601 0.02573287 14.9148768 0.03828097 18.06298828 0.05102539 C20.20361225 0.05604349 22.34423734 0.06060586 24.48486328 0.06469727 C29.71928827 0.0748415 34.95355772 0.09442163 40.18798828 0.11352539 C40.18798828 6.71352539 40.18798828 13.31352539 40.18798828 20.11352539 C37.84962891 20.16250977 35.51126953 20.21149414 33.10205078 20.26196289 C30.80495507 20.31617164 28.50795272 20.37340033 26.2109375 20.4309082 C24.63028085 20.46888774 23.04954686 20.50379104 21.46875 20.53540039 C19.17957132 20.58173418 16.89091127 20.63960407 14.60205078 20.69946289 C13.90995514 20.7110141 13.2178595 20.72256531 12.50479126 20.73446655 C6.72813511 20.90327356 2.06915364 21.93729232 -3.81201172 23.11352539 C-4.14201172 55.45352539 -4.47201172 87.79352539 -4.81201172 121.11352539 C-11.74201172 121.11352539 -18.67201172 121.11352539 -25.81201172 121.11352539 C-25.81201172 82.50352539 -25.81201172 43.89352539 -25.81201172 4.11352539 C-5.1713432 -0.01460831 -5.1713432 -0.01460831 0 0 Z " fill="#010101" transform="translate(633.81201171875,870.886474609375)"/>
<path d="M0 0 C7.26 0 14.52 0 22 0 C22 39.93 22 79.86 22 121 C14.74 121 7.48 121 0 121 C0 81.07 0 41.14 0 0 Z " fill="#050505" transform="translate(1109,871)"/>
<path d="M0 0 C3.125 0.375 3.125 0.375 6 1 C8.13494634 7.39737181 5.22084998 12.34271313 2.71484375 18.1875 C1.77814737 20.44723848 0.84314371 22.70767921 -0.09033203 24.96875 C-0.57495911 26.13277344 -1.05958618 27.29679687 -1.55889893 28.49609375 C-3.83345895 34.02647966 -5.97898304 39.60475816 -8.12109375 45.1875 C-8.54883087 46.29774536 -8.97656799 47.40799072 -9.41726685 48.55187988 C-10.30167616 50.84754491 -11.18536363 53.14348816 -12.06835938 55.43969727 C-14.22280453 61.04209986 -16.38167808 66.64279558 -18.5402565 72.24360657 C-19.27597996 74.15271114 -20.01151901 76.06188668 -20.74703979 77.97106934 C-25.3130254 89.82117003 -29.9040227 101.66150604 -34.5 113.5 C-40.94420138 130.10145444 -47.36450066 146.71199301 -53.77139282 163.32788086 C-60.58280469 180.99060886 -67.39569522 198.65282505 -74.26040649 216.29492188 C-74.95660147 218.08493558 -75.6519074 219.87529535 -76.34628296 221.66601562 C-77.28686123 224.0908607 -78.23078425 226.51437422 -79.17578125 228.9375 C-79.4506839 229.64801514 -79.72558655 230.35853027 -80.00881958 231.09057617 C-81.8854862 235.8854862 -81.8854862 235.8854862 -83 237 C-85.4375 237.1875 -85.4375 237.1875 -88 237 C-90 235 -90 235 -90.07832336 233.11787415 C-89.42045988 227.70443849 -88.17255864 223.01566969 -86.10546875 217.98046875 C-85.80656738 217.22570755 -85.50766602 216.47094635 -85.19970703 215.6933136 C-84.54860853 214.0525831 -83.89253653 212.41381929 -83.23202515 210.77685547 C-81.77971972 207.17662143 -80.35240994 203.56662421 -78.923172 199.95718384 C-78.15322171 198.01332094 -77.38202525 196.06995124 -76.60966492 194.12704468 C-72.47204495 183.70890341 -68.45495441 173.24524224 -64.44381714 162.77789307 C-62.32130544 157.23998693 -60.19403314 151.70391132 -58.06640625 146.16796875 C-57.43146996 144.51577332 -57.43146996 144.51577332 -56.78370667 142.8302002 C-52.0377624 130.48716798 -47.25440264 118.15869978 -42.46740723 105.83154297 C-37.96670902 94.24142931 -33.47471118 82.64806065 -29.00505829 71.04593468 C-28.26907511 69.13553475 -27.53290578 67.22520665 -26.79669189 65.31489563 C-24.44075036 59.20133905 -22.08644994 53.08715731 -19.73486328 46.97192383 C-15.36086867 35.60883493 -10.95274166 24.25921956 -6.47265625 12.9375 C-5.84272011 11.33007935 -5.84272011 11.33007935 -5.20005798 9.69018555 C-4.80927567 8.70832275 -4.41849335 7.72645996 -4.01586914 6.71484375 C-3.50280968 5.41728149 -3.50280968 5.41728149 -2.97938538 4.09350586 C-2 2 -2 2 0 0 Z " fill="#526EFE" transform="translate(841,465)"/>
<path d="M0 0 C1.14103935 -0.00287018 1.14103935 -0.00287018 2.30513 -0.00579834 C3.90776909 -0.00715217 5.51041944 -0.00351208 7.11303711 0.00488281 C9.52679024 0.01551928 11.93978646 0.00499896 14.35351562 -0.0078125 C15.92317869 -0.00648932 17.49284129 -0.00392366 19.0625 0 C20.11784187 -0.00607269 20.11784187 -0.00607269 21.19450378 -0.01226807 C27.72513322 0.04678015 33.17995412 1.15173715 39.86328125 2.265625 C39.86328125 13.155625 39.86328125 24.045625 39.86328125 35.265625 C-6.83671875 41.103125 -6.83671875 41.103125 -22.13671875 30.265625 C-26.5854051 25.34865588 -27.50928399 22.31065625 -27.40625 15.80078125 C-26.99820454 11.96278841 -25.75179219 10.07682895 -23.13671875 7.265625 C-16.09393207 1.78111216 -8.89234897 -0.05044308 0 0 Z " fill="#FAFAFA" transform="translate(930.13671875,937.734375)"/>
<path d="M0 0 C3.89121764 0.59190353 6.22531695 2.70995054 9.1484375 5.171875 C9.75494141 5.66558594 10.36144531 6.15929687 10.98632812 6.66796875 C12.27171652 7.71473632 13.55321538 8.76629575 14.83105469 9.82226562 C17.95016469 12.39094445 21.11422854 14.90282913 24.2734375 17.421875 C25.53263203 18.43088982 26.79174672 19.44000429 28.05078125 20.44921875 C33.35199471 24.68991334 38.69541233 28.87662087 44.03955078 33.06298828 C46.95310577 35.34640803 49.86307943 37.63438303 52.7734375 39.921875 C53.94008723 40.83856323 55.10675389 41.7552299 56.2734375 42.671875 C59.7734375 45.421875 59.7734375 45.421875 63.2734375 48.171875 C63.85150146 48.62602783 64.42956543 49.08018066 65.02514648 49.5480957 C66.18627485 50.46049192 67.34724614 51.37308807 68.50805664 52.28588867 C71.50817135 54.64459664 74.51132489 56.99927425 77.51953125 59.34765625 C79.91391105 61.21734365 82.3020121 63.094508 84.68359375 64.98046875 C86.51260777 66.42564418 88.35044332 67.85995486 90.20703125 69.26953125 C94.66940533 72.78017162 94.66940533 72.78017162 95.16796875 75.85546875 C94.65722287 79.17784541 93.65431876 79.9836591 91.0859375 82.109375 C90.2609375 82.79773438 89.4359375 83.48609375 88.5859375 84.1953125 C84.49580655 87.43333284 80.38104793 90.63433234 76.2265625 93.7890625 C72.73424925 96.44298273 69.28128764 99.14488589 65.8359375 101.859375 C65.25424805 102.31747559 64.67255859 102.77557617 64.07324219 103.24755859 C62.89376749 104.17661473 61.71440558 105.10581407 60.53515625 106.03515625 C58.79353962 107.40605182 57.04955865 108.77387491 55.3046875 110.140625 C49.95295839 114.33434676 44.61456612 118.54205071 39.31689453 122.80395508 C32.5504655 128.24682716 25.70963067 133.57825496 18.78491211 138.81860352 C15.69135382 141.16446535 12.62012661 143.5155562 9.65234375 146.01953125 C8.78480469 146.75042969 7.91726563 147.48132813 7.0234375 148.234375 C6.30671875 148.85957031 5.59 149.48476563 4.8515625 150.12890625 C2.27504415 151.7319656 0.75692001 151.83185687 -2.2265625 151.421875 C-4.2265625 149.421875 -4.2265625 149.421875 -4.234375 146.6171875 C-2.91677923 142.43969393 -0.53470544 140.74012149 2.8984375 138.296875 C4.18703059 137.3344472 5.47476337 136.37086665 6.76171875 135.40625 C7.42768066 134.91447266 8.09364258 134.42269531 8.77978516 133.91601562 C11.94811767 131.5415122 15.01112999 129.04046139 18.0859375 126.546875 C23.39717101 122.27306222 28.78058211 118.10548894 34.2109375 113.984375 C40.49056079 109.21757974 46.63782931 104.31605387 52.73168945 99.31469727 C58.39432238 94.68571399 64.18035852 90.23101401 70.015625 85.82226562 C74.02648706 82.78691362 77.93565451 79.67382819 81.7734375 76.421875 C77.85699009 72.34726336 73.67548762 68.77356831 69.2734375 65.234375 C68.56783691 64.66412598 67.86223633 64.09387695 67.13525391 63.50634766 C61.80961769 59.21775216 56.41562054 55.02731433 50.98046875 50.87890625 C45.78747928 46.91268267 40.66722789 42.85307405 35.53515625 38.80859375 C33.79353962 37.43769818 32.04955865 36.06987509 30.3046875 34.703125 C23.49634755 29.36802432 16.71339691 24.00380032 9.98803711 18.56420898 C6.7042174 15.91841344 3.38142828 13.42899191 -0.1015625 11.046875 C-2.82679988 9.04441797 -3.1774139 8.56385984 -4.3515625 5.171875 C-4.19292377 1.68182283 -3.46866556 0.65722084 0 0 Z " fill="#526EFE" transform="translate(859.2265625,507.578125)"/>
<path d="M0 0 C2 2 2 2 2.01171875 4.80078125 C0.68380667 8.99985457 -1.73784662 10.72608598 -5.1875 13.1875 C-6.47298434 14.14930123 -7.7581314 15.1115534 -9.04296875 16.07421875 C-9.70216309 16.55938965 -10.36135742 17.04456055 -11.04052734 17.54443359 C-14.07696153 19.80000556 -17.03563769 22.15104133 -20 24.5 C-21.16753857 25.41851582 -22.33550869 26.33648335 -23.50390625 27.25390625 C-24.08156738 27.70781738 -24.65922852 28.16172852 -25.25439453 28.62939453 C-26.99029677 29.99238127 -28.72740847 31.35381194 -30.46484375 32.71484375 C-35.8173613 36.91032505 -41.15723013 41.11894515 -46.45629883 45.38183594 C-53.19539983 50.8028989 -60.02046729 56.09431835 -66.90722656 61.32641602 C-72.71731146 65.75273011 -78.3952373 70.31524155 -84 75 C-80.08354475 79.07461979 -75.90200371 82.64824038 -71.5 86.1875 C-70.79367432 86.75847412 -70.08734863 87.32944824 -69.35961914 87.91772461 C-64.05531831 92.18995339 -58.67743379 96.35430941 -53.26171875 100.484375 C-49.7126955 103.20461025 -46.23188232 106.00717042 -42.75 108.8125 C-37.41709005 113.1067287 -32.01694652 117.29891459 -26.5625 121.4375 C-20.69953915 125.89310795 -14.90851539 130.42581277 -9.1875 135.0625 C-8.19182007 135.86675415 -8.19182007 135.86675415 -7.17602539 136.68725586 C-0.35939322 142.24537847 -0.35939322 142.24537847 2 145 C1.7 149.3 1.7 149.3 0 151 C-3.61316299 151.60001985 -4.92015168 151.05240691 -8.0234375 149.015625 C-9.15047837 148.10582265 -10.26710096 147.18301723 -11.375 146.25 C-11.9836792 145.75483887 -12.5923584 145.25967773 -13.21948242 144.74951172 C-14.50715847 143.70139182 -15.79086006 142.64837254 -17.07080078 141.59082031 C-20.12646998 139.07111132 -23.21975814 136.59894695 -26.3125 134.125 C-26.92988037 133.62895264 -27.54726074 133.13290527 -28.18334961 132.62182617 C-32.87884522 128.86024795 -37.64517594 125.19956087 -42.4375 121.5625 C-48.7882949 116.73987865 -55.0155529 111.78887441 -61.18676758 106.73901367 C-67.71756297 101.39754537 -74.35011707 96.19189701 -81 91 C-83.58469999 88.980907 -86.16773585 86.95970686 -88.75 84.9375 C-89.34699707 84.4719873 -89.94399414 84.00647461 -90.55908203 83.52685547 C-96.91892853 78.54611879 -96.91892853 78.54611879 -97.35546875 75.60546875 C-96.89551029 72.23412488 -95.90932684 71.46175884 -93.3125 69.3125 C-92.4875 68.62414062 -91.6625 67.93578125 -90.8125 67.2265625 C-86.72095526 63.98742292 -82.60465764 60.78536687 -78.44921875 57.62890625 C-74.98182672 54.99368831 -71.54832706 52.31713099 -68.125 49.625 C-67.54661377 49.17020264 -66.96822754 48.71540527 -66.37231445 48.24682617 C-61.429579 44.35219869 -56.51767249 40.41951209 -51.6081543 36.4831543 C-45.68287624 31.73633372 -39.71511613 27.04491038 -33.73828125 22.36328125 C-31.38883528 20.52068205 -29.04400413 18.6722547 -26.69921875 16.82373047 C-24.95869494 15.4541775 -23.21396261 14.09013296 -21.46875 12.7265625 C-19.09493116 10.86966688 -16.74529548 8.98641195 -14.40625 7.0859375 C-13.25011365 6.16131621 -12.09386779 5.23683183 -10.9375 4.3125 C-9.91527344 3.48363281 -8.89304687 2.65476562 -7.83984375 1.80078125 C-4.82861701 -0.10867615 -3.48164082 -0.60943799 0 0 Z " fill="#526EFE" transform="translate(743,508)"/>
<path d="M0 0 C1.03474916 1.30654963 2.04269114 2.63569156 3 4 C3.53109375 3.50628906 4.0621875 3.01257812 4.609375 2.50390625 C5.66898438 1.54291016 5.66898438 1.54291016 6.75 0.5625 C7.44609375 -0.07558594 8.1421875 -0.71367188 8.859375 -1.37109375 C14.75764991 -5.85937958 24.90810848 -4.81754973 32 -4 C37.81635631 -2.08596501 41.13986423 1.62294476 44 7 C44.87303177 9.82984733 45.1224235 12.35539806 45.11352539 15.30957031 C45.11341209 16.5704245 45.11341209 16.5704245 45.11329651 17.85675049 C45.10813522 18.75480408 45.10297394 19.65285767 45.09765625 20.578125 C45.0962413 21.5046991 45.09482635 22.43127319 45.09336853 23.38592529 C45.08777824 26.34064992 45.0752275 29.29529833 45.0625 32.25 C45.05748375 34.25520724 45.05292106 36.26041567 45.04882812 38.265625 C45.03781199 43.17711263 45.020554 48.0885434 45 53 C41.7 53 38.4 53 35 53 C34.970271 51.17625854 34.970271 51.17625854 34.93994141 49.31567383 C34.86375305 44.79609802 34.77505595 40.2768386 34.68261719 35.75756836 C34.64438211 33.80320491 34.60951973 31.84877241 34.578125 29.89428711 C34.53235565 27.08161778 34.47438077 24.26942161 34.4140625 21.45703125 C34.40251129 20.58601273 34.39096008 19.7149942 34.37905884 18.81758118 C34.27448476 14.49943498 34.13681631 10.87642253 32 7 C28.66135922 5.43114797 24.6339011 5.76063996 21 5.6875 C19.1746875 5.63142578 19.1746875 5.63142578 17.3125 5.57421875 C13.94489979 5.72375795 13.94489979 5.72375795 11.625 7.83203125 C9.36008505 10.85373268 8.87577047 13.3401087 8.79467773 17.01245117 C8.77473251 17.81305466 8.75478729 18.61365814 8.73423767 19.43852234 C8.70916893 20.72772331 8.70916893 20.72772331 8.68359375 22.04296875 C8.66281265 22.9265657 8.64203156 23.81016266 8.62062073 24.72053528 C8.55524246 27.54277785 8.49629472 30.36511335 8.4375 33.1875 C8.39430363 35.10092106 8.35068898 37.01433273 8.30664062 38.92773438 C8.19957305 43.61839437 8.09827248 48.30914783 8 53 C4.7 53 1.4 53 -2 53 C-2.0093457 51.74864258 -2.01869141 50.49728516 -2.02832031 49.20800781 C-2.06820482 44.5634405 -2.13395941 39.91953665 -2.20751953 35.27539062 C-2.23573807 33.26571173 -2.25694821 31.25592166 -2.27099609 29.24609375 C-2.29241335 26.35619151 -2.33905703 23.4676271 -2.390625 20.578125 C-2.39185364 19.68007141 -2.39308228 18.78201782 -2.39434814 17.85675049 C-2.47465011 12.79127632 -2.47465011 12.79127632 -4.91308594 8.46386719 C-12.41527317 3.20145321 -13.20362128 6 -27 6 C-27 21.51 -27 37.02 -27 53 C-30.3 53 -33.6 53 -37 53 C-37 34.85 -37 16.7 -37 -2 C-27.66052762 -6.66973619 -8.24791202 -5.93849665 0 0 Z " fill="#621EEB" transform="translate(936,1057)"/>
<path d="M0 0 C7.12689726 4.85986518 11.94585964 11.4606303 13.875 19.9375 C13.875 23.2375 13.875 26.5375 13.875 29.9375 C-0.975 29.9375 -15.825 29.9375 -31.125 29.9375 C-26.79275077 40.14575536 -26.79275077 40.14575536 -18.125 45.9375 C-10.4559072 46.83118832 -4.07646337 46.13282329 2.8515625 42.71484375 C4.875 41.9375 4.875 41.9375 7.875 42.9375 C10.875 47.27083333 10.875 47.27083333 10.875 49.9375 C9.31648245 50.75761312 7.75298284 51.56826213 6.1875 52.375 C4.88232422 53.05369141 4.88232422 53.05369141 3.55078125 53.74609375 C-4.54428337 57.35046559 -15.25168732 57.49201144 -23.6640625 54.80859375 C-29.44319476 52.0624304 -33.59839204 49.28429271 -37.125 43.9375 C-37.7025 43.091875 -38.28 42.24625 -38.875 41.375 C-42.82224898 33.67786448 -42.53656892 22.60974103 -40.06640625 14.43359375 C-36.54775589 6.81461913 -32.1532478 1.9786699 -24.36328125 -1.18359375 C-16.85069916 -3.22259371 -7.03323797 -3.64242648 0 0 Z " fill="#621DEB" transform="translate(878.125,1055.0625)"/>
<path d="M0 0 C0.82290527 0.00354492 1.64581055 0.00708984 2.49365234 0.01074219 C10.35892848 0.22023999 18.03637304 1.68706305 25 5.5 C25.98828125 7.46875 25.98828125 7.46875 26 9.5 C24.5625 12.75 24.5625 12.75 23 15.5 C22.32453125 15.22285156 21.6490625 14.94570312 20.953125 14.66015625 C20.06109375 14.29792969 19.1690625 13.93570312 18.25 13.5625 C17.36828125 13.20285156 16.4865625 12.84320312 15.578125 12.47265625 C10.55078227 10.57597695 5.91303365 10.2865536 0.5625 10.25 C-0.18837891 10.229375 -0.93925781 10.20875 -1.71289062 10.1875 C-6.30929908 10.1551594 -9.27373454 10.51898763 -13 13.5 C-15.43522498 17.15283747 -15.55474367 20.24968452 -15 24.5 C-14.04883916 27.33745172 -13.26216143 28.3267376 -10.7421875 29.9921875 C-4.8545773 32.83171612 1.0417521 35.29653509 7.1875 37.5 C15.87387008 40.64248835 23.48661616 44.03740531 28 52.5 C29.87749119 58.13247357 29.93023685 64.20608472 27.5 69.6875 C23.511902 76.60020321 17.94068574 80.57401924 10.43286133 82.91333008 C6.50368781 83.86082671 2.71522375 83.98845762 -1.3125 83.9375 C-2.1370166 83.93210205 -2.9615332 83.9267041 -3.81103516 83.92114258 C-12.87137449 83.69706967 -20.32534168 81.30009992 -28 76.5 C-26.125 70.75 -26.125 70.75 -25 68.5 C-21.53743269 69.07608388 -18.81975508 70.01028123 -15.6875 71.5625 C-8.24350955 74.6092907 0.93920173 74.93547968 8.69921875 72.734375 C12.41944074 71.00148047 14.87481422 68.9651123 17 65.5 C17.5443649 63.05673329 17.5443649 63.05673329 17.5 60.5 C17.5309375 59.654375 17.561875 58.80875 17.59375 57.9375 C16.73226311 54.40086959 15.00905729 53.44654878 12 51.5 C9.21626365 50.2105056 9.21626365 50.2105056 6.1875 49.1875 C0.89655679 47.23280718 -4.31834565 45.16674002 -9.5 42.9375 C-10.1700708 42.65672607 -10.8401416 42.37595215 -11.53051758 42.08666992 C-17.64571248 39.43462104 -21.98403753 36.53192495 -25 30.5 C-26.82067845 24.554148 -27.3471897 17.23639548 -24.375 11.625 C-17.83125007 3.01480272 -10.45324218 -0.08121513 0 0 Z " fill="#631EEB" transform="translate(646,1027.5)"/>
<path d="M0 0 C2.97 0 5.94 0 9 0 C9.01401855 1.58868896 9.01401855 1.58868896 9.02832031 3.20947266 C9.06833849 7.15715851 9.1341291 11.10407471 9.20751953 15.05126953 C9.23566087 16.75624671 9.25690935 18.46135269 9.27099609 20.16650391 C9.29252137 22.62469089 9.339217 25.08134048 9.390625 27.5390625 C9.39185364 28.29555084 9.39308228 29.05203918 9.39434814 29.83145142 C9.53442876 34.94840018 10.5733122 37.97799139 14 42 C20.23606798 45.49071198 20.23606798 45.49071198 38 44 C38 29.48 38 14.96 38 0 C41.3 0 44.6 0 48 0 C48.09297974 8.07595493 48.1639056 16.15168348 48.20724869 24.2280426 C48.22805897 27.97888189 48.25625467 31.72935302 48.30175781 35.47998047 C48.3454525 39.10452862 48.36918636 42.72872427 48.37950897 46.35351562 C48.38685832 47.73133894 48.40120946 49.10914455 48.42292023 50.48681641 C48.5611227 59.62608664 48.35549895 66.39561539 41.8125 73.3125 C32.37565958 78.97460425 21.92175145 79.45065642 11.3125 76.875 C7.86300766 75.68976114 7.23496543 75.41570806 5.375 72.125 C5.04421734 69.36847781 4.97183455 66.76960258 5 64 C5.73863281 64.28875 6.47726562 64.5775 7.23828125 64.875 C15.48958201 67.89453573 23.53685331 69.93831002 32.0625 66.75 C35.62025583 64.6566607 35.62025583 64.6566607 37 61 C37.43016065 58.33197977 37.73073814 55.69261855 38 53 C37.4227417 53.16008545 36.8454834 53.3201709 36.25073242 53.48510742 C27.91532283 55.39197138 16.3320804 55.52522557 8.765625 51.33984375 C4.34001204 47.98146931 1.12798851 44.50400961 0 39 C-0.08231525 37.65726185 -0.11789309 36.31107213 -0.11352539 34.96582031 C-0.11344986 34.18531311 -0.11337433 33.40480591 -0.11329651 32.60064697 C-0.10813522 31.76821472 -0.10297394 30.93578247 -0.09765625 30.078125 C-0.0962413 29.21813904 -0.09482635 28.35815308 -0.09336853 27.47210693 C-0.08778097 24.73136891 -0.07523075 21.99071324 -0.0625 19.25 C-0.05748339 17.3893241 -0.05292077 15.52864691 -0.04882812 13.66796875 C-0.03781561 9.11194754 -0.02055951 4.55598772 0 0 Z " fill="#611CEB" transform="translate(683,1055)"/>
<path d="M0 0 C1.6171875 1.046875 1.6171875 1.046875 2.41796875 2.984375 C2.68577074 5.75691328 1.79039516 7.56243526 0.6171875 10.046875 C-0.4965625 9.716875 -1.6103125 9.386875 -2.7578125 9.046875 C-7.77753537 7.91884739 -12.69944527 7.82122626 -17.8203125 7.796875 C-18.62581543 7.78785156 -19.43131836 7.77882813 -20.26123047 7.76953125 C-24.79780388 7.60300527 -24.79780388 7.60300527 -28.3828125 10.046875 C-29.05025127 12.46032167 -29.05025127 12.46032167 -28.3828125 15.046875 C-23.76701531 18.74243414 -18.99481638 20.36142169 -13.3828125 22.046875 C-5.86525982 24.30462184 1.53900531 26.83162958 5.6171875 34.046875 C6.54702167 39.62588005 6.18382734 44.79239182 3.0234375 49.578125 C-0.89808555 53.67393797 -6.84624317 55.76747163 -12.42236328 56.20800781 C-31.21564616 56.57408308 -31.21564616 56.57408308 -39.3828125 53.046875 C-40.45918377 49.17193844 -40.32848201 47.52234573 -38.3828125 44.046875 C-37.84624023 44.18762451 -37.30966797 44.32837402 -36.75683594 44.47338867 C-30.98132575 45.88613475 -25.56747355 46.38303792 -19.6328125 46.359375 C-18.80910156 46.37548828 -17.98539063 46.39160156 -17.13671875 46.40820312 C-12.44805681 46.41197822 -9.11453307 46.2210676 -5.3828125 43.046875 C-4.54947917 40.046875 -4.54947917 40.046875 -5.3828125 37.046875 C-10.10604802 33.46501074 -15.92762279 32.15245582 -21.52539062 30.47265625 C-27.87560119 28.46845477 -33.82306396 25.84659996 -38.3828125 20.859375 C-40.23244033 15.65729673 -40.27269833 10.32102768 -38.2578125 5.171875 C-29.24866856 -5.03848814 -12.04067002 -3.74968962 0 0 Z " fill="#631EEB" transform="translate(779.3828125,1054.953125)"/>
<path d="M0 0 C3.3 0 6.6 0 10 0 C10 5.94 10 11.88 10 18 C17.26 18 24.52 18 32 18 C32 21.3 32 24.6 32 28 C24.74 28 17.48 28 10 28 C10.05109664 32.34321402 10.11406994 36.68286823 10.20751953 41.02490234 C10.23570088 42.50102196 10.25692966 43.97729169 10.27099609 45.45361328 C10.29246698 47.57923057 10.33913043 49.70304879 10.390625 51.828125 C10.41157227 53.1059082 10.43251953 54.38369141 10.45410156 55.70019531 C11.08481658 59.51269272 11.98839004 60.67047672 15 63 C18.04213267 64.52106634 21.28047572 64.37429338 24.625 64.5625 C25.68460938 64.62727539 25.68460938 64.62727539 26.765625 64.69335938 C28.51018537 64.79944751 30.25506697 64.90022889 32 65 C32 67.97 32 70.94 32 74 C28.62451195 74.08122832 25.25099482 74.14061118 21.875 74.1875 C20.92367187 74.21263672 19.97234375 74.23777344 18.9921875 74.26367188 C13.55804201 74.32027756 9.66777461 74.12171297 5 71 C0.31147333 65.80460558 -0.14170707 62.53034788 -0.09765625 55.7109375 C-0.0962413 54.89251373 -0.09482635 54.07408997 -0.09336853 53.23086548 C-0.0877629 50.61220675 -0.07520948 47.99363296 -0.0625 45.375 C-0.05748572 43.60156373 -0.05292269 41.82812613 -0.04882812 40.0546875 C-0.03779164 35.70309218 -0.02052325 31.3515605 0 27 C-3.63 27 -7.26 27 -11 27 C-11 24.03 -11 21.06 -11 18 C-7.37 18 -3.74 18 0 18 C0 12.06 0 6.12 0 0 Z " fill="#631FEB" transform="translate(800,1036)"/>
<path d="M0 0 C4.22810115 1.67362337 6.16681431 3.85121133 8 8 C8.5931368 11.98248997 8.17424115 13.67640929 6.25 17.25 C3.59403033 20.49618515 1.78389647 21.74683978 -2.3671875 22.3359375 C-8.08522757 22.42500354 -11.56237048 21.99386657 -16 18 C-18.35242347 14.79214982 -18.4684209 11.90350748 -18 8 C-13.4142508 -0.2227227 -8.83845737 -0.82941535 0 0 Z " fill="#070707" transform="translate(1125,831)"/>
<path d="M0 0 C3.43809236 1.92506154 5.70386027 3.87498526 7.75 7.3125 C8.245 10.2825 8.245 10.2825 8.75 13.3125 C-2.14 13.3125 -13.03 13.3125 -24.25 13.3125 C-23.2164639 7.11128341 -22.51960707 5.58210707 -18.25 1.3125 C-12.25600692 -2.68349539 -6.4202142 -2.93563698 0 0 Z " fill="#FBF9FE" transform="translate(872.25,1062.6875)"/>
</svg>
